<svg xmlns="http://www.w3.org/2000/svg"  viewBox="0 0 50 50" width="100px" height="100px"><path d="M 25 4 C 12.300781 4 2 13 2 24 C 2 30.199219 5.300781 36.101563 11 39.800781 C 10.898438 40.898438 10.300781 43.398438 8.199219 46.398438 L 7.101563 48 L 9.101563 48 C 14.5 48 18.199219 44.699219 19.398438 43.398438 C 21.199219 43.800781 23.101563 44 25 44 C 37.699219 44 48 35 48 24 C 48 13 37.699219 4 25 4 Z M 15 26 C 13.898438 26 13 25.101563 13 24 C 13 22.898438 13.898438 22 15 22 C 16.101563 22 17 22.898438 17 24 C 17 25.101563 16.101563 26 15 26 Z M 25 26 C 23.898438 26 23 25.101563 23 24 C 23 22.898438 23.898438 22 25 22 C 26.101563 22 27 22.898438 27 24 C 27 25.101563 26.101563 26 25 26 Z M 35 26 C 33.898438 26 33 25.101563 33 24 C 33 22.898438 33.898438 22 35 22 C 36.101563 22 37 22.898438 37 24 C 37 25.101563 36.101563 26 35 26 Z"/></svg>